<svg width="256" height="175" viewBox="0 0 256 175" fill="none" xmlns="http://www.w3.org/2000/svg">
<g id="SP labs_">
<path d="M29.0172 71.6086C23.3777 71.6086 17.9349 70.92 12.6889 69.5429C7.50841 68.1003 3.27878 66.2642 0 64.0346L6.39362 49.6735C9.47568 51.6408 13.0168 53.2802 17.0169 54.5917C21.0826 55.8376 25.1155 56.4606 29.1156 56.4606C31.8042 56.4606 33.9682 56.2311 35.6076 55.7721C37.2469 55.2475 38.4273 54.5917 39.1486 53.8048C39.9355 52.9523 40.329 51.9687 40.329 50.8539C40.329 49.2801 39.6077 48.0341 38.165 47.1161C36.7223 46.198 34.8534 45.4439 32.5583 44.8537C30.2631 44.2635 27.7057 43.6734 24.8859 43.0832C22.1318 42.493 19.3448 41.7389 16.5251 40.8208C13.7709 39.9028 11.2462 38.7224 8.95107 37.2797C6.65592 35.7715 4.78702 33.837 3.34436 31.4763C1.90169 29.05 1.18036 26.0007 1.18036 22.3285C1.18036 18.1972 2.29515 14.4594 4.52472 11.1151C6.81986 7.77071 10.2298 5.08211 14.7545 3.04927C19.2792 1.01642 24.9187 0 31.673 0C36.1977 0 40.6241 0.524606 44.9521 1.57382C49.3456 2.55745 53.2474 4.0329 56.6573 6.00017L50.6572 20.4596C47.3784 18.689 44.1324 17.3775 40.9192 16.5251C37.706 15.607 34.5911 15.148 31.5747 15.148C28.8861 15.148 26.7221 15.4431 25.0827 16.0332C23.4433 16.5578 22.2629 17.2792 21.5416 18.1972C20.8203 19.1153 20.4596 20.1645 20.4596 21.3449C20.4596 22.8531 21.1481 24.0662 22.5252 24.9843C23.9679 25.8368 25.8368 26.5581 28.1319 27.1483C30.4927 27.6729 33.0501 28.2303 35.8043 28.8205C38.624 29.4107 41.411 30.1648 44.1652 31.0828C46.9849 31.9353 49.5424 33.1157 51.8375 34.6239C54.1327 36.0666 55.9688 38.0011 57.3459 40.4274C58.7885 42.7881 59.5099 45.7718 59.5099 49.3784C59.5099 53.3785 58.3623 57.0836 56.0671 60.4935C53.8376 63.8379 50.4604 66.5265 45.9357 68.5593C41.4766 70.5921 35.8371 71.6086 29.0172 71.6086Z" fill="#343434"/>
<path d="M67.0308 70.2315V1.37709H98.5071C104.802 1.37709 110.212 2.39351 114.737 4.42636C119.327 6.4592 122.868 9.4101 125.36 13.2791C127.852 17.0824 129.098 21.6072 129.098 26.8532C129.098 32.0337 127.852 36.5256 125.36 40.329C122.868 44.1324 119.327 47.0833 114.737 49.1817C110.212 51.2146 104.802 52.231 98.5071 52.231H77.8508L86.5068 43.7717V70.2315H67.0308ZM86.5068 45.8374L77.8508 36.8863H97.3268C101.392 36.8863 104.409 36.001 106.376 34.2305C108.409 32.4599 109.425 30.0008 109.425 26.8532C109.425 23.64 108.409 21.1481 106.376 19.3776C104.409 17.6071 101.392 16.7218 97.3268 16.7218H77.8508L86.5068 7.77071V45.8374Z" fill="#343434"/>
<path d="M3.93454 164.496V91.5108H22.6236V164.496H3.93454Z" fill="#343434"/>
<path d="M65.852 164.496V154.562L64.5733 152.103V133.807C64.5733 130.856 63.6552 128.594 61.8191 127.02C60.0486 125.381 57.196 124.561 53.2615 124.561C50.704 124.561 48.1138 124.987 45.4908 125.84C42.8677 126.627 40.6382 127.741 38.8021 129.184L32.5068 116.495C35.5233 114.528 39.1299 113.02 43.3268 111.97C47.5892 110.856 51.8188 110.298 56.0157 110.298C64.6716 110.298 71.3604 112.298 76.0818 116.298C80.8688 120.233 83.2623 126.43 83.2623 134.889V164.496H65.852ZM50.1139 165.382C45.8514 165.382 42.2448 164.66 39.2939 163.218C36.343 161.775 34.0806 159.808 32.5068 157.316C30.9986 154.824 30.2444 152.037 30.2444 148.955C30.2444 145.676 31.0641 142.856 32.7035 140.496C34.4085 138.069 36.9987 136.233 40.4742 134.987C43.9497 133.676 48.4417 133.02 53.95 133.02H66.5405V142.758H56.5075C53.491 142.758 51.3598 143.25 50.1139 144.234C48.9335 145.217 48.3433 146.529 48.3433 148.168C48.3433 149.807 48.9663 151.119 50.2122 152.103C51.4581 153.086 53.1631 153.578 55.3271 153.578C57.36 153.578 59.1961 153.086 60.8355 152.103C62.5404 151.053 63.7864 149.48 64.5733 147.381L67.1307 154.267C66.1471 157.939 64.2126 160.726 61.3273 162.628C58.5075 164.464 54.7697 165.382 50.1139 165.382Z" fill="#343434"/>
<path d="M127.125 165.382C122.338 165.382 118.338 164.398 115.125 162.431C111.978 160.464 109.617 157.447 108.043 153.381C106.469 149.316 105.682 144.102 105.682 137.742C105.682 131.512 106.502 126.364 108.141 122.299C109.846 118.233 112.305 115.216 115.519 113.249C118.732 111.282 122.601 110.298 127.125 110.298C131.978 110.298 136.372 111.413 140.306 113.643C144.306 115.872 147.454 119.053 149.749 123.184C152.11 127.249 153.29 132.102 153.29 137.742C153.29 143.447 152.11 148.365 149.749 152.496C147.454 156.562 144.306 159.742 140.306 162.037C136.372 164.267 131.978 165.382 127.125 165.382ZM93.5836 164.496V91.5108H112.273V120.135L111.289 137.742L111.387 155.349V164.496H93.5836ZM123.191 150.529C125.289 150.529 127.158 150.037 128.798 149.053C130.503 148.07 131.847 146.627 132.831 144.725C133.88 142.758 134.404 140.43 134.404 137.742C134.404 135.053 133.88 132.791 132.831 130.954C131.847 129.053 130.503 127.61 128.798 126.626C127.158 125.643 125.289 125.151 123.191 125.151C121.093 125.151 119.191 125.643 117.486 126.626C115.846 127.61 114.502 129.053 113.453 130.954C112.469 132.791 111.978 135.053 111.978 137.742C111.978 140.43 112.469 142.758 113.453 144.725C114.502 146.627 115.846 148.07 117.486 149.053C119.191 150.037 121.093 150.529 123.191 150.529Z" fill="#343434"/>
<path d="M179.879 165.382C175.354 165.382 170.928 164.857 166.6 163.808C162.338 162.759 158.895 161.447 156.272 159.873L161.879 147.086C164.37 148.594 167.288 149.807 170.633 150.726C173.977 151.578 177.256 152.004 180.469 152.004C183.617 152.004 185.781 151.676 186.961 151.021C188.207 150.365 188.83 149.48 188.83 148.365C188.83 147.316 188.24 146.561 187.06 146.102C185.945 145.578 184.437 145.184 182.535 144.922C180.699 144.66 178.666 144.365 176.436 144.037C174.207 143.709 171.944 143.283 169.649 142.758C167.42 142.168 165.354 141.315 163.452 140.201C161.616 139.02 160.141 137.446 159.026 135.479C157.911 133.512 157.354 131.02 157.354 128.004C157.354 124.594 158.337 121.577 160.305 118.954C162.338 116.266 165.288 114.167 169.157 112.659C173.026 111.085 177.748 110.298 183.322 110.298C187.06 110.298 190.83 110.692 194.634 111.479C198.502 112.2 201.748 113.315 204.372 114.823L198.765 127.512C196.142 126.004 193.519 124.987 190.896 124.463C188.273 123.872 185.781 123.577 183.42 123.577C180.272 123.577 178.043 123.938 176.731 124.659C175.485 125.381 174.862 126.266 174.862 127.315C174.862 128.364 175.42 129.184 176.535 129.774C177.649 130.299 179.125 130.725 180.961 131.053C182.863 131.315 184.928 131.61 187.158 131.938C189.387 132.2 191.617 132.627 193.847 133.217C196.142 133.807 198.207 134.692 200.044 135.873C201.945 136.987 203.453 138.528 204.568 140.496C205.683 142.397 206.24 144.857 206.24 147.873C206.24 151.152 205.224 154.103 203.191 156.726C201.224 159.349 198.273 161.447 194.338 163.021C190.469 164.595 185.65 165.382 179.879 165.382Z" fill="#343434"/>
<path d="M206.818 174.726V164.496H256V174.726H206.818Z" fill="#343434"/>
</g>
</svg>
